{
	"asset":{
		"generator":"Khronos glTF Blender I/O v3.6.27",
		"version":"2.0"
	},
	"extensionsUsed":[
		"KHR_materials_specular",
		"KHR_materials_ior"
	],
	"scene":0,
	"scenes":[
		{
			"name":"Scene",
			"nodes":[
				0,
				1,
				2,
				3,
				4,
				5,
				14
			]
		}
	],
	"nodes":[
		{
			"mesh":0,
			"name":"Cube",
			"translation":[
				0,
				0.2912631630897522,
				0
			]
		},
		{
			"mesh":1,
			"name":"Cylinder",
			"translation":[
				-0.05482633411884308,
				2.516110420227051,
				0
			]
		},
		{
			"mesh":2,
			"name":"Cylinder.001",
			"translation":[
				-0.05482633411884308,
				2.516110420227051,
				0
			]
		},
		{
			"mesh":3,
			"name":"Cylinder.002",
			"scale":[
				0.1529516875743866,
				0.1529516875743866,
				0.1529516875743866
			],
			"translation":[
				0,
				-0.03999999910593033,
				0
			]
		},
		{
			"mesh":4,
			"name":"Cylinder.003",
			"scale":[
				0.1529516875743866,
				0.1529516875743866,
				0.1529516875743866
			],
			"translation":[
				-0.9468381404876709,
				0.5328397154808044,
				0.0026019401848316193
			]
		},
		{
			"mesh":5,
			"name":"Cylinder.004",
			"scale":[
				0.1529516875743866,
				0.1529516875743866,
				0.1529516875743866
			],
			"translation":[
				-0.9468381404876709,
				0.5328397154808044,
				0.46139034628868103
			]
		},
		{
			"mesh":6,
			"name":"Circle",
			"rotation":[
				0,
				0,
				-0.7071068286895752,
				0.7071068286895752
			],
			"scale":[
				1.9853525161743164,
				1.9853521585464478,
				1.9853525161743164
			],
			"translation":[
				-1.322556734085083,
				-0.022498369216918945,
				0.026647906750440598
			]
		},
		{
			"mesh":7,
			"name":"Plane",
			"scale":[
				-1.320933222770691,
				-3.2251598834991455,
				-1.320933222770691
			],
			"translation":[
				-0.26146936416625977,
				-4.295440673828125,
				0.10007405281066895
			]
		},
		{
			"mesh":8,
			"name":"Plane.001",
			"scale":[
				-1.320933222770691,
				-3.2251598834991455,
				-1.320933222770691
			],
			"translation":[
				-0.26146936416625977,
				-5.677284240722656,
				0.871890127658844
			]
		},
		{
			"mesh":9,
			"name":"Plane.002",
			"scale":[
				-1.320933222770691,
				-3.2251598834991455,
				-1.320933222770691
			],
			"translation":[
				-0.2836174964904785,
				-7.845869064331055,
				0.7682930827140808
			]
		},
		{
			"mesh":10,
			"name":"Plane.003",
			"scale":[
				-1.320933222770691,
				-3.2251598834991455,
				-1.320933222770691
			],
			"translation":[
				-0.26146936416625977,
				-5.677284240722656,
				-0.5142226219177246
			]
		},
		{
			"children":[
				7,
				8,
				9,
				10
			],
			"mesh":11,
			"name":"Cylinder.006",
			"scale":[
				-0.43452709913253784,
				-0.17796987295150757,
				-0.43452709913253784
			],
			"translation":[
				-1.243064522743225,
				0.007627248764038086,
				-0.11536800116300583
			]
		},
		{
			"mesh":12,
			"name":"Cylinder.007",
			"scale":[
				-0.43452709913253784,
				-0.17796987295150757,
				-0.43452709913253784
			],
			"translation":[
				-1.2248053550720215,
				-0.014585733413696289,
				0.03848285973072052
			]
		},
		{
			"mesh":13,
			"name":"Sphere",
			"scale":[
				1.9712333679199219,
				0.9231446385383606,
				1.9712333679199219
			],
			"translation":[
				-1.4253628253936768,
				-0.022498369216918945,
				0.020809505134820938
			]
		},
		{
			"children":[
				6,
				11,
				12,
				13
			],
			"mesh":14,
			"name":"Cylinder.005",
			"scale":[
				1.0972812175750732,
				1.0972812175750732,
				1.0972812175750732
			],
			"translation":[
				0.07324002683162689,
				3.938032627105713,
				-0.06679213047027588
			]
		}
	],
	"animations":[
		{
			"channels":[
				{
					"sampler":0,
					"target":{
						"node":3,
						"path":"translation"
					}
				}
			],
			"name":"Cylinder.002Action",
			"samplers":[
				{
					"input":57,
					"interpolation":"LINEAR",
					"output":58
				}
			]
		},
		{
			"channels":[
				{
					"sampler":0,
					"target":{
						"node":14,
						"path":"rotation"
					}
				}
			],
			"name":"Cylinder.005Action",
			"samplers":[
				{
					"input":59,
					"interpolation":"LINEAR",
					"output":60
				}
			]
		},
		{
			"channels":[
				{
					"sampler":0,
					"target":{
						"node":11,
						"path":"rotation"
					}
				}
			],
			"name":"Cylinder.006Action",
			"samplers":[
				{
					"input":59,
					"interpolation":"LINEAR",
					"output":61
				}
			]
		}
	],
	"materials":[
		{
			"doubleSided":true,
			"extensions":{
				"KHR_materials_specular":{
					"specularColorFactor":[
						0,
						0,
						0
					]
				},
				"KHR_materials_ior":{
					"ior":1.4500000476837158
				}
			},
			"name":"Material",
			"pbrMetallicRoughness":{
				"baseColorFactor":[
					0,
					0,
					0,
					1
				],
				"metallicFactor":0,
				"roughnessFactor":0
			}
		},
		{
			"doubleSided":true,
			"name":"Material.003",
			"pbrMetallicRoughness":{
				"baseColorFactor":[
					0.607450544834137,
					0.607450544834137,
					0.607450544834137,
					1
				],
				"metallicFactor":0,
				"roughnessFactor":0
			}
		},
		{
			"doubleSided":true,
			"name":"Material.002",
			"pbrMetallicRoughness":{
				"baseColorFactor":[
					1,
					0.022067256271839142,
					0.06772684305906296,
					1
				],
				"metallicFactor":0,
				"roughnessFactor":0
			}
		}
	],
	"meshes":[
		{
			"name":"Cube",
			"primitives":[
				{
					"attributes":{
						"POSITION":0,
						"NORMAL":1,
						"TEXCOORD_0":2
					},
					"indices":3,
					"material":0
				}
			]
		},
		{
			"name":"Cylinder",
			"primitives":[
				{
					"attributes":{
						"POSITION":4,
						"NORMAL":5,
						"TEXCOORD_0":6
					},
					"indices":7
				}
			]
		},
		{
			"name":"Cylinder.001",
			"primitives":[
				{
					"attributes":{
						"POSITION":8,
						"NORMAL":9,
						"TEXCOORD_0":10
					},
					"indices":11,
					"material":1
				}
			]
		},
		{
			"name":"Cylinder.002",
			"primitives":[
				{
					"attributes":{
						"POSITION":12,
						"NORMAL":13,
						"TEXCOORD_0":14
					},
					"indices":15,
					"material":2
				}
			]
		},
		{
			"name":"Cylinder.003",
			"primitives":[
				{
					"attributes":{
						"POSITION":16,
						"NORMAL":17,
						"TEXCOORD_0":18
					},
					"indices":15,
					"material":2
				}
			]
		},
		{
			"name":"Cylinder.004",
			"primitives":[
				{
					"attributes":{
						"POSITION":19,
						"NORMAL":20,
						"TEXCOORD_0":21
					},
					"indices":15,
					"material":2
				}
			]
		},
		{
			"name":"Circle",
			"primitives":[
				{
					"attributes":{
						"POSITION":22,
						"NORMAL":23,
						"TEXCOORD_0":24
					},
					"indices":25,
					"material":2
				}
			]
		},
		{
			"name":"Plane",
			"primitives":[
				{
					"attributes":{
						"POSITION":26,
						"NORMAL":27,
						"TEXCOORD_0":28
					},
					"indices":29,
					"material":2
				}
			]
		},
		{
			"name":"Plane.001",
			"primitives":[
				{
					"attributes":{
						"POSITION":30,
						"NORMAL":31,
						"TEXCOORD_0":32
					},
					"indices":33,
					"material":2
				}
			]
		},
		{
			"name":"Plane.002",
			"primitives":[
				{
					"attributes":{
						"POSITION":34,
						"NORMAL":35,
						"TEXCOORD_0":36
					},
					"indices":33,
					"material":2
				}
			]
		},
		{
			"name":"Plane.003",
			"primitives":[
				{
					"attributes":{
						"POSITION":37,
						"NORMAL":38,
						"TEXCOORD_0":39
					},
					"indices":40,
					"material":2
				}
			]
		},
		{
			"name":"Cylinder.006",
			"primitives":[
				{
					"attributes":{
						"POSITION":41,
						"NORMAL":42,
						"TEXCOORD_0":43
					},
					"indices":44,
					"material":2
				}
			]
		},
		{
			"name":"Cylinder.007",
			"primitives":[
				{
					"attributes":{
						"POSITION":45,
						"NORMAL":46,
						"TEXCOORD_0":47
					},
					"indices":48,
					"material":2
				}
			]
		},
		{
			"name":"Sphere",
			"primitives":[
				{
					"attributes":{
						"POSITION":49,
						"NORMAL":50,
						"TEXCOORD_0":51
					},
					"indices":52,
					"material":0
				}
			]
		},
		{
			"name":"Cylinder.005",
			"primitives":[
				{
					"attributes":{
						"POSITION":53,
						"NORMAL":54,
						"TEXCOORD_0":55
					},
					"indices":56,
					"material":0
				}
			]
		}
	],
	"accessors":[
		{
			"bufferView":0,
			"componentType":5126,
			"count":61,
			"max":[
				1,
				2.2450971603393555,
				1
			],
			"min":[
				-1.3242549896240234,
				-0.2720593214035034,
				-1
			],
			"type":"VEC3"
		},
		{
			"bufferView":1,
			"componentType":5126,
			"count":61,
			"type":"VEC3"
		},
		{
			"bufferView":2,
			"componentType":5126,
			"count":61,
			"type":"VEC2"
		},
		{
			"bufferView":3,
			"componentType":5123,
			"count":288,
			"type":"SCALAR"
		},
		{
			"bufferView":4,
			"componentType":5126,
			"count":361,
			"max":[
				0.20941415429115295,
				0.20941415429115295,
				0.20941415429115295
			],
			"min":[
				-0.20941415429115295,
				-0.20941415429115295,
				-0.20941415429115295
			],
			"type":"VEC3"
		},
		{
			"bufferView":5,
			"componentType":5126,
			"count":361,
			"type":"VEC3"
		},
		{
			"bufferView":6,
			"componentType":5126,
			"count":361,
			"type":"VEC2"
		},
		{
			"bufferView":7,
			"componentType":5123,
			"count":948,
			"type":"SCALAR"
		},
		{
			"bufferView":8,
			"componentType":5126,
			"count":128,
			"max":[
				0.09623318910598755,
				1.1898819208145142,
				0.09623320400714874
			],
			"min":[
				-0.09623321890830994,
				0.0702221542596817,
				-0.09623320400714874
			],
			"type":"VEC3"
		},
		{
			"bufferView":9,
			"componentType":5126,
			"count":128,
			"type":"VEC3"
		},
		{
			"bufferView":10,
			"componentType":5126,
			"count":128,
			"type":"VEC2"
		},
		{
			"bufferView":11,
			"componentType":5123,
			"count":372,
			"type":"SCALAR"
		},
		{
			"bufferView":12,
			"componentType":5126,
			"count":271,
			"max":[
				-5.190439701080322,
				4.483712673187256,
				-1.9825527667999268
			],
			"min":[
				-7.190439701080322,
				2.483712673187256,
				-3.9825527667999268
			],
			"type":"VEC3"
		},
		{
			"bufferView":13,
			"componentType":5126,
			"count":271,
			"type":"VEC3"
		},
		{
			"bufferView":14,
			"componentType":5126,
			"count":271,
			"type":"VEC2"
		},
		{
			"bufferView":15,
			"componentType":5123,
			"count":948,
			"type":"SCALAR"
		},
		{
			"bufferView":16,
			"componentType":5126,
			"count":271,
			"max":[
				1,
				1,
				1
			],
			"min":[
				-1,
				-1,
				-1
			],
			"type":"VEC3"
		},
		{
			"bufferView":17,
			"componentType":5126,
			"count":271,
			"type":"VEC3"
		},
		{
			"bufferView":18,
			"componentType":5126,
			"count":271,
			"type":"VEC2"
		},
		{
			"bufferView":19,
			"componentType":5126,
			"count":271,
			"max":[
				1,
				1,
				1
			],
			"min":[
				-1,
				-1,
				-1
			],
			"type":"VEC3"
		},
		{
			"bufferView":20,
			"componentType":5126,
			"count":271,
			"type":"VEC3"
		},
		{
			"bufferView":21,
			"componentType":5126,
			"count":271,
			"type":"VEC2"
		},
		{
			"bufferView":22,
			"componentType":5126,
			"count":384,
			"max":[
				1.0263184309005737,
				0.0024626408703625202,
				1.0178477764129639
			],
			"min":[
				-1.0137481689453125,
				-0.07511961460113525,
				-1.0139007568359375
			],
			"type":"VEC3"
		},
		{
			"bufferView":23,
			"componentType":5126,
			"count":384,
			"type":"VEC3"
		},
		{
			"bufferView":24,
			"componentType":5126,
			"count":384,
			"type":"VEC2"
		},
		{
			"bufferView":25,
			"componentType":5123,
			"count":2304,
			"type":"SCALAR"
		},
		{
			"bufferView":26,
			"componentType":5126,
			"count":88,
			"max":[
				0.1563236266374588,
				1.365092396736145,
				1.0423483848571777
			],
			"min":[
				-0.2562929093837738,
				-1.228783369064331,
				-1.0513578653335571
			],
			"type":"VEC3"
		},
		{
			"bufferView":27,
			"componentType":5126,
			"count":88,
			"type":"VEC3"
		},
		{
			"bufferView":28,
			"componentType":5126,
			"count":88,
			"type":"VEC2"
		},
		{
			"bufferView":29,
			"componentType":5123,
			"count":132,
			"type":"SCALAR"
		},
		{
			"bufferView":30,
			"componentType":5126,
			"count":88,
			"max":[
				0.15632367134094238,
				-0.8350142240524292,
				3.204014301300049
			],
			"min":[
				-0.2562928795814514,
				-2.858470916748047,
				0.6217777729034424
			],
			"type":"VEC3"
		},
		{
			"bufferView":31,
			"componentType":5126,
			"count":88,
			"type":"VEC3"
		},
		{
			"bufferView":32,
			"componentType":5126,
			"count":88,
			"type":"VEC2"
		},
		{
			"bufferView":33,
			"componentType":5123,
			"count":132,
			"type":"SCALAR"
		},
		{
			"bufferView":34,
			"componentType":5126,
			"count":88,
			"max":[
				0.15632371604442596,
				-2.318265914916992,
				0.7949106693267822
			],
			"min":[
				-0.25629281997680664,
				-4.90658712387085,
				-1.148831844329834
			],
			"type":"VEC3"
		},
		{
			"bufferView":35,
			"componentType":5126,
			"count":88,
			"type":"VEC3"
		},
		{
			"bufferView":36,
			"componentType":5126,
			"count":88,
			"type":"VEC2"
		},
		{
			"bufferView":37,
			"componentType":5126,
			"count":88,
			"max":[
				0.15632374584674835,
				-0.4150163233280182,
				-0.4856259524822235
			],
			"min":[
				-0.25629276037216187,
				-2.2699527740478516,
				-3.0948920249938965
			],
			"type":"VEC3"
		},
		{
			"bufferView":38,
			"componentType":5126,
			"count":88,
			"type":"VEC3"
		},
		{
			"bufferView":39,
			"componentType":5126,
			"count":88,
			"type":"VEC2"
		},
		{
			"bufferView":40,
			"componentType":5123,
			"count":132,
			"type":"SCALAR"
		},
		{
			"bufferView":41,
			"componentType":5126,
			"count":202,
			"max":[
				0.40957143902778625,
				2.441577911376953,
				1
			],
			"min":[
				-0.4095716178417206,
				-2.4415760040283203,
				-0.9999998807907104
			],
			"type":"VEC3"
		},
		{
			"bufferView":42,
			"componentType":5126,
			"count":202,
			"type":"VEC3"
		},
		{
			"bufferView":43,
			"componentType":5126,
			"count":202,
			"type":"VEC2"
		},
		{
			"bufferView":44,
			"componentType":5123,
			"count":756,
			"type":"SCALAR"
		},
		{
			"bufferView":45,
			"componentType":5126,
			"count":234,
			"max":[
				2.575756072998047,
				1.9867885112762451,
				0.8137316703796387
			],
			"min":[
				2.45034122467041,
				-1.9867883920669556,
				-0.8137316703796387
			],
			"type":"VEC3"
		},
		{
			"bufferView":46,
			"componentType":5126,
			"count":234,
			"type":"VEC3"
		},
		{
			"bufferView":47,
			"componentType":5126,
			"count":234,
			"type":"VEC2"
		},
		{
			"bufferView":48,
			"componentType":5123,
			"count":756,
			"type":"SCALAR"
		},
		{
			"bufferView":49,
			"componentType":5126,
			"count":44544,
			"max":[
				0.38048720359802246,
				2.1478350162506104,
				1.0124906301498413
			],
			"min":[
				-0.4713537096977234,
				-2.1475319862365723,
				-1.0124744176864624
			],
			"type":"VEC3"
		},
		{
			"bufferView":50,
			"componentType":5126,
			"count":44544,
			"type":"VEC3"
		},
		{
			"bufferView":51,
			"componentType":5126,
			"count":44544,
			"type":"VEC2"
		},
		{
			"bufferView":52,
			"componentType":5123,
			"count":66816,
			"type":"SCALAR"
		},
		{
			"bufferView":53,
			"componentType":5126,
			"count":819,
			"max":[
				0.9176945090293884,
				0.5383933186531067,
				0.5383932590484619
			],
			"min":[
				-1.2147574424743652,
				-0.5383933186531067,
				-0.5383932590484619
			],
			"type":"VEC3"
		},
		{
			"bufferView":54,
			"componentType":5126,
			"count":819,
			"type":"VEC3"
		},
		{
			"bufferView":55,
			"componentType":5126,
			"count":819,
			"type":"VEC2"
		},
		{
			"bufferView":56,
			"componentType":5123,
			"count":2292,
			"type":"SCALAR"
		},
		{
			"bufferView":57,
			"componentType":5126,
			"count":346,
			"max":[
				14.416666666666666
			],
			"min":[
				0.041666666666666664
			],
			"type":"SCALAR"
		},
		{
			"bufferView":58,
			"componentType":5126,
			"count":346,
			"type":"VEC3"
		},
		{
			"bufferView":59,
			"componentType":5126,
			"count":344,
			"max":[
				14.583333333333334
			],
			"min":[
				0.2916666666666667
			],
			"type":"SCALAR"
		},
		{
			"bufferView":60,
			"componentType":5126,
			"count":344,
			"type":"VEC4"
		},
		{
			"bufferView":61,
			"componentType":5126,
			"count":344,
			"type":"VEC4"
		}
	],
	"bufferViews":[
		{
			"buffer":0,
			"byteLength":732,
			"byteOffset":0,
			"target":34962
		},
		{
			"buffer":0,
			"byteLength":732,
			"byteOffset":732,
			"target":34962
		},
		{
			"buffer":0,
			"byteLength":488,
			"byteOffset":1464,
			"target":34962
		},
		{
			"buffer":0,
			"byteLength":576,
			"byteOffset":1952,
			"target":34963
		},
		{
			"buffer":0,
			"byteLength":4332,
			"byteOffset":2528,
			"target":34962
		},
		{
			"buffer":0,
			"byteLength":4332,
			"byteOffset":6860,
			"target":34962
		},
		{
			"buffer":0,
			"byteLength":2888,
			"byteOffset":11192,
			"target":34962
		},
		{
			"buffer":0,
			"byteLength":1896,
			"byteOffset":14080,
			"target":34963
		},
		{
			"buffer":0,
			"byteLength":1536,
			"byteOffset":15976,
			"target":34962
		},
		{
			"buffer":0,
			"byteLength":1536,
			"byteOffset":17512,
			"target":34962
		},
		{
			"buffer":0,
			"byteLength":1024,
			"byteOffset":19048,
			"target":34962
		},
		{
			"buffer":0,
			"byteLength":744,
			"byteOffset":20072,
			"target":34963
		},
		{
			"buffer":0,
			"byteLength":3252,
			"byteOffset":20816,
			"target":34962
		},
		{
			"buffer":0,
			"byteLength":3252,
			"byteOffset":24068,
			"target":34962
		},
		{
			"buffer":0,
			"byteLength":2168,
			"byteOffset":27320,
			"target":34962
		},
		{
			"buffer":0,
			"byteLength":1896,
			"byteOffset":29488,
			"target":34963
		},
		{
			"buffer":0,
			"byteLength":3252,
			"byteOffset":31384,
			"target":34962
		},
		{
			"buffer":0,
			"byteLength":3252,
			"byteOffset":34636,
			"target":34962
		},
		{
			"buffer":0,
			"byteLength":2168,
			"byteOffset":37888,
			"target":34962
		},
		{
			"buffer":0,
			"byteLength":3252,
			"byteOffset":40056,
			"target":34962
		},
		{
			"buffer":0,
			"byteLength":3252,
			"byteOffset":43308,
			"target":34962
		},
		{
			"buffer":0,
			"byteLength":2168,
			"byteOffset":46560,
			"target":34962
		},
		{
			"buffer":0,
			"byteLength":4608,
			"byteOffset":48728,
			"target":34962
		},
		{
			"buffer":0,
			"byteLength":4608,
			"byteOffset":53336,
			"target":34962
		},
		{
			"buffer":0,
			"byteLength":3072,
			"byteOffset":57944,
			"target":34962
		},
		{
			"buffer":0,
			"byteLength":4608,
			"byteOffset":61016,
			"target":34963
		},
		{
			"buffer":0,
			"byteLength":1056,
			"byteOffset":65624,
			"target":34962
		},
		{
			"buffer":0,
			"byteLength":1056,
			"byteOffset":66680,
			"target":34962
		},
		{
			"buffer":0,
			"byteLength":704,
			"byteOffset":67736,
			"target":34962
		},
		{
			"buffer":0,
			"byteLength":264,
			"byteOffset":68440,
			"target":34963
		},
		{
			"buffer":0,
			"byteLength":1056,
			"byteOffset":68704,
			"target":34962
		},
		{
			"buffer":0,
			"byteLength":1056,
			"byteOffset":69760,
			"target":34962
		},
		{
			"buffer":0,
			"byteLength":704,
			"byteOffset":70816,
			"target":34962
		},
		{
			"buffer":0,
			"byteLength":264,
			"byteOffset":71520,
			"target":34963
		},
		{
			"buffer":0,
			"byteLength":1056,
			"byteOffset":71784,
			"target":34962
		},
		{
			"buffer":0,
			"byteLength":1056,
			"byteOffset":72840,
			"target":34962
		},
		{
			"buffer":0,
			"byteLength":704,
			"byteOffset":73896,
			"target":34962
		},
		{
			"buffer":0,
			"byteLength":1056,
			"byteOffset":74600,
			"target":34962
		},
		{
			"buffer":0,
			"byteLength":1056,
			"byteOffset":75656,
			"target":34962
		},
		{
			"buffer":0,
			"byteLength":704,
			"byteOffset":76712,
			"target":34962
		},
		{
			"buffer":0,
			"byteLength":264,
			"byteOffset":77416,
			"target":34963
		},
		{
			"buffer":0,
			"byteLength":2424,
			"byteOffset":77680,
			"target":34962
		},
		{
			"buffer":0,
			"byteLength":2424,
			"byteOffset":80104,
			"target":34962
		},
		{
			"buffer":0,
			"byteLength":1616,
			"byteOffset":82528,
			"target":34962
		},
		{
			"buffer":0,
			"byteLength":1512,
			"byteOffset":84144,
			"target":34963
		},
		{
			"buffer":0,
			"byteLength":2808,
			"byteOffset":85656,
			"target":34962
		},
		{
			"buffer":0,
			"byteLength":2808,
			"byteOffset":88464,
			"target":34962
		},
		{
			"buffer":0,
			"byteLength":1872,
			"byteOffset":91272,
			"target":34962
		},
		{
			"buffer":0,
			"byteLength":1512,
			"byteOffset":93144,
			"target":34963
		},
		{
			"buffer":0,
			"byteLength":534528,
			"byteOffset":94656,
			"target":34962
		},
		{
			"buffer":0,
			"byteLength":534528,
			"byteOffset":629184,
			"target":34962
		},
		{
			"buffer":0,
			"byteLength":356352,
			"byteOffset":1163712,
			"target":34962
		},
		{
			"buffer":0,
			"byteLength":133632,
			"byteOffset":1520064,
			"target":34963
		},
		{
			"buffer":0,
			"byteLength":9828,
			"byteOffset":1653696,
			"target":34962
		},
		{
			"buffer":0,
			"byteLength":9828,
			"byteOffset":1663524,
			"target":34962
		},
		{
			"buffer":0,
			"byteLength":6552,
			"byteOffset":1673352,
			"target":34962
		},
		{
			"buffer":0,
			"byteLength":4584,
			"byteOffset":1679904,
			"target":34963
		},
		{
			"buffer":0,
			"byteLength":1384,
			"byteOffset":1684488
		},
		{
			"buffer":0,
			"byteLength":4152,
			"byteOffset":1685872
		},
		{
			"buffer":0,
			"byteLength":1376,
			"byteOffset":1690024
		},
		{
			"buffer":0,
			"byteLength":5504,
			"byteOffset":1691400
		},
		{
			"buffer":0,
			"byteLength":5504,
			"byteOffset":1696904
		}
	],
	"buffers":[
		{
			"byteLength":1702408,
			"uri":"data:application/octet-stream;base64,"
		}
	]
}
