{
	"asset":{
		"generator":"Khronos glTF Blender I/O v3.6.27",
		"version":"2.0"
	},
	"extensionsUsed":[
		"KHR_materials_specular",
		"KHR_materials_ior",
		"KHR_materials_clearcoat"
	],
	"scene":0,
	"scenes":[
		{
			"name":"Scene",
			"nodes":[
				0,
				1,
				2,
				3,
				4,
				5,
				6,
				7
			]
		}
	],
	"nodes":[
		{
			"mesh":0,
			"name":"object One",
			"scale":[
				1.1158878803253174,
				1.1158878803253174,
				1.1158878803253174
			],
			"translation":[
				1.4859427213668823,
				0.6764792203903198,
				-0.03779565542936325
			]
		},
		{
			"mesh":1,
			"name":"Circle",
			"rotation":[
				0,
				0.008808149956166744,
				0,
				0.9999611973762512
			],
			"scale":[
				1.0541995763778687,
				1.0541995763778687,
				1.0541995763778687
			],
			"translation":[
				0.36576032638549805,
				1.9657385349273682,
				-4.782323360443115
			]
		},
		{
			"name":"Empty",
			"rotation":[
				0.70710688829422,
				0,
				0,
				0.7071066498756409
			],
			"scale":[
				2.4825642108917236,
				2.4825642108917236,
				2.4825642108917236
			],
			"translation":[
				-0.47754621505737305,
				2.863621711730957,
				0
			]
		},
		{
			"mesh":2,
			"name":"Circle.001",
			"rotation":[
				0,
				0.008808149956166744,
				0,
				0.9999611973762512
			],
			"scale":[
				1.0541995763778687,
				1.0541995763778687,
				1.0541995763778687
			],
			"translation":[
				0.36728906631469727,
				1.9991289377212524,
				-4.781985759735107
			]
		},
		{
			"mesh":3,
			"name":"Cylinder",
			"rotation":[
				0,
				0,
				-1,
				0
			],
			"scale":[
				-1.5486029386520386,
				-0.3853912949562073,
				-1.7125980854034424
			],
			"translation":[
				1.5069499015808105,
				0.40651679039001465,
				-0.05912373214960098
			]
		},
		{
			"mesh":4,
			"name":"Cube",
			"scale":[
				2.5327746868133545,
				0.9873932003974915,
				1.959478735923767
			],
			"translation":[
				0.6399900913238525,
				1.0815963745117188,
				-4.901982307434082
			]
		},
		{
			"mesh":5,
			"name":"objectOneLabel",
			"scale":[
				1.1158878803253174,
				1.1158878803253174,
				1.1158878803253174
			],
			"translation":[
				1.4859427213668823,
				0.6764792203903198,
				-0.03779565542936325
			]
		},
		{
			"mesh":6,
			"name":"objectTwoLabel",
			"rotation":[
				0,
				0.008808149956166744,
				0,
				0.9999611973762512
			],
			"scale":[
				1.0541995763778687,
				1.0541995763778687,
				1.0541995763778687
			],
			"translation":[
				0.36576032638549805,
				1.9657385349273682,
				-4.782323360443115
			]
		}
	],
	"materials":[
		{
			"doubleSided":true,
			"extensions":{
				"KHR_materials_specular":{
					"specularColorFactor":[
						2.371357614441398,
						2.371357614441398,
						2.371357614441398
					]
				},
				"KHR_materials_ior":{
					"ior":1.4500000476837158
				}
			},
			"name":"products",
			"pbrMetallicRoughness":{
				"baseColorFactor":[
					0,
					0,
					0,
					1
				],
				"metallicFactor":0,
				"roughnessFactor":0
			}
		},
		{
			"doubleSided":true,
			"extensions":{
				"KHR_materials_clearcoat":{
					"clearcoatFactor":0.0732758641242981,
					"clearcoatRoughnessFactor":0.029999999329447746
				},
				"KHR_materials_specular":{
					"specularColorFactor":[
						2.371357614441398,
						2.371357614441398,
						2.371357614441398
					]
				},
				"KHR_materials_ior":{
					"ior":1.4500000476837158
				}
			},
			"name":"base",
			"pbrMetallicRoughness":{
				"baseColorFactor":[
					0.800000011920929,
					0.800000011920929,
					0.800000011920929,
					1
				],
				"metallicFactor":0
			}
		},
		{
			"doubleSided":true,
			"name":"Label",
			"pbrMetallicRoughness":{
				"baseColorFactor":[
					0.04091506823897362,
					0.0865003764629364,
					0.11697067320346832,
					1
				],
				"metallicFactor":0,
				"roughnessFactor":0.5
			}
		}
	],
	"meshes":[
		{
			"name":"Circle",
			"primitives":[
				{
					"attributes":{
						"POSITION":0,
						"NORMAL":1,
						"TEXCOORD_0":2
					},
					"indices":3,
					"material":0
				}
			]
		},
		{
			"name":"Circle.001",
			"primitives":[
				{
					"attributes":{
						"POSITION":4,
						"NORMAL":5,
						"TEXCOORD_0":6
					},
					"indices":7,
					"material":0
				}
			]
		},
		{
			"name":"Circle.011",
			"primitives":[
				{
					"attributes":{
						"POSITION":8,
						"NORMAL":9,
						"TEXCOORD_0":10
					},
					"indices":11,
					"material":0
				}
			]
		},
		{
			"name":"Cylinder",
			"primitives":[
				{
					"attributes":{
						"POSITION":12,
						"NORMAL":13,
						"TEXCOORD_0":14
					},
					"indices":15,
					"material":1
				}
			]
		},
		{
			"name":"Cube",
			"primitives":[
				{
					"attributes":{
						"POSITION":16,
						"NORMAL":17,
						"TEXCOORD_0":18
					},
					"indices":19,
					"material":1
				}
			]
		},
		{
			"name":"Circle.012",
			"primitives":[
				{
					"attributes":{
						"POSITION":20,
						"NORMAL":21,
						"TEXCOORD_0":22
					},
					"indices":23,
					"material":2
				}
			]
		},
		{
			"name":"Circle.013",
			"primitives":[
				{
					"attributes":{
						"POSITION":24,
						"NORMAL":25,
						"TEXCOORD_0":26
					},
					"indices":27,
					"material":2
				}
			]
		}
	],
	"accessors":[
		{
			"bufferView":0,
			"componentType":5126,
			"count":19027,
			"max":[
				1.0322380065917969,
				1.096806287765503,
				1.0322380065917969
			],
			"min":[
				-1.0322380065917969,
				-0.020000016316771507,
				-1.0322380065917969
			],
			"type":"VEC3"
		},
		{
			"bufferView":1,
			"componentType":5126,
			"count":19027,
			"type":"VEC3"
		},
		{
			"bufferView":2,
			"componentType":5126,
			"count":19027,
			"type":"VEC2"
		},
		{
			"bufferView":3,
			"componentType":5123,
			"count":93768,
			"type":"SCALAR"
		},
		{
			"bufferView":4,
			"componentType":5126,
			"count":1536,
			"max":[
				1,
				4.880673408508301,
				1
			],
			"min":[
				-1,
				0.09571820497512817,
				-1
			],
			"type":"VEC3"
		},
		{
			"bufferView":5,
			"componentType":5126,
			"count":1536,
			"type":"VEC3"
		},
		{
			"bufferView":6,
			"componentType":5126,
			"count":1536,
			"type":"VEC2"
		},
		{
			"bufferView":7,
			"componentType":5123,
			"count":5556,
			"type":"SCALAR"
		},
		{
			"bufferView":8,
			"componentType":5126,
			"count":128,
			"max":[
				0.48987120389938354,
				4.9905266761779785,
				0.4748862385749817
			],
			"min":[
				-1.0211750268936157,
				4.814887523651123,
				-0.47488629817962646
			],
			"type":"VEC3"
		},
		{
			"bufferView":9,
			"componentType":5126,
			"count":128,
			"type":"VEC3"
		},
		{
			"bufferView":10,
			"componentType":5126,
			"count":128,
			"type":"VEC2"
		},
		{
			"bufferView":11,
			"componentType":5123,
			"count":372,
			"type":"SCALAR"
		},
		{
			"bufferView":12,
			"componentType":5126,
			"count":130,
			"max":[
				1,
				1,
				1
			],
			"min":[
				-1,
				-1,
				-1
			],
			"type":"VEC3"
		},
		{
			"bufferView":13,
			"componentType":5126,
			"count":130,
			"type":"VEC3"
		},
		{
			"bufferView":14,
			"componentType":5126,
			"count":130,
			"type":"VEC2"
		},
		{
			"bufferView":15,
			"componentType":5123,
			"count":372,
			"type":"SCALAR"
		},
		{
			"bufferView":16,
			"componentType":5126,
			"count":24,
			"max":[
				1,
				1,
				1
			],
			"min":[
				-1,
				-1,
				-1
			],
			"type":"VEC3"
		},
		{
			"bufferView":17,
			"componentType":5126,
			"count":24,
			"type":"VEC3"
		},
		{
			"bufferView":18,
			"componentType":5126,
			"count":24,
			"type":"VEC2"
		},
		{
			"bufferView":19,
			"componentType":5123,
			"count":36,
			"type":"SCALAR"
		},
		{
			"bufferView":20,
			"componentType":5126,
			"count":256,
			"max":[
				1.025900959968567,
				0.7399709224700928,
				1.025900959968567
			],
			"min":[
				-1.025900959968567,
				0.18080377578735352,
				-1.025900959968567
			],
			"type":"VEC3"
		},
		{
			"bufferView":21,
			"componentType":5126,
			"count":256,
			"type":"VEC3"
		},
		{
			"bufferView":22,
			"componentType":5126,
			"count":256,
			"type":"VEC2"
		},
		{
			"bufferView":23,
			"componentType":5123,
			"count":768,
			"type":"SCALAR"
		},
		{
			"bufferView":24,
			"componentType":5126,
			"count":70,
			"max":[
				1,
				3.1995599269866943,
				1
			],
			"min":[
				-1,
				0.5372048616409302,
				-1
			],
			"type":"VEC3"
		},
		{
			"bufferView":25,
			"componentType":5126,
			"count":70,
			"type":"VEC3"
		},
		{
			"bufferView":26,
			"componentType":5126,
			"count":70,
			"type":"VEC2"
		},
		{
			"bufferView":27,
			"componentType":5123,
			"count":192,
			"type":"SCALAR"
		}
	],
	"bufferViews":[
		{
			"buffer":0,
			"byteLength":228324,
			"byteOffset":0,
			"target":34962
		},
		{
			"buffer":0,
			"byteLength":228324,
			"byteOffset":228324,
			"target":34962
		},
		{
			"buffer":0,
			"byteLength":152216,
			"byteOffset":456648,
			"target":34962
		},
		{
			"buffer":0,
			"byteLength":187536,
			"byteOffset":608864,
			"target":34963
		},
		{
			"buffer":0,
			"byteLength":18432,
			"byteOffset":796400,
			"target":34962
		},
		{
			"buffer":0,
			"byteLength":18432,
			"byteOffset":814832,
			"target":34962
		},
		{
			"buffer":0,
			"byteLength":12288,
			"byteOffset":833264,
			"target":34962
		},
		{
			"buffer":0,
			"byteLength":11112,
			"byteOffset":845552,
			"target":34963
		},
		{
			"buffer":0,
			"byteLength":1536,
			"byteOffset":856664,
			"target":34962
		},
		{
			"buffer":0,
			"byteLength":1536,
			"byteOffset":858200,
			"target":34962
		},
		{
			"buffer":0,
			"byteLength":1024,
			"byteOffset":859736,
			"target":34962
		},
		{
			"buffer":0,
			"byteLength":744,
			"byteOffset":860760,
			"target":34963
		},
		{
			"buffer":0,
			"byteLength":1560,
			"byteOffset":861504,
			"target":34962
		},
		{
			"buffer":0,
			"byteLength":1560,
			"byteOffset":863064,
			"target":34962
		},
		{
			"buffer":0,
			"byteLength":1040,
			"byteOffset":864624,
			"target":34962
		},
		{
			"buffer":0,
			"byteLength":744,
			"byteOffset":865664,
			"target":34963
		},
		{
			"buffer":0,
			"byteLength":288,
			"byteOffset":866408,
			"target":34962
		},
		{
			"buffer":0,
			"byteLength":288,
			"byteOffset":866696,
			"target":34962
		},
		{
			"buffer":0,
			"byteLength":192,
			"byteOffset":866984,
			"target":34962
		},
		{
			"buffer":0,
			"byteLength":72,
			"byteOffset":867176,
			"target":34963
		},
		{
			"buffer":0,
			"byteLength":3072,
			"byteOffset":867248,
			"target":34962
		},
		{
			"buffer":0,
			"byteLength":3072,
			"byteOffset":870320,
			"target":34962
		},
		{
			"buffer":0,
			"byteLength":2048,
			"byteOffset":873392,
			"target":34962
		},
		{
			"buffer":0,
			"byteLength":1536,
			"byteOffset":875440,
			"target":34963
		},
		{
			"buffer":0,
			"byteLength":840,
			"byteOffset":876976,
			"target":34962
		},
		{
			"buffer":0,
			"byteLength":840,
			"byteOffset":877816,
			"target":34962
		},
		{
			"buffer":0,
			"byteLength":560,
			"byteOffset":878656,
			"target":34962
		},
		{
			"buffer":0,
			"byteLength":384,
			"byteOffset":879216,
			"target":34963
		}
	],
	"buffers":[
		{
			"byteLength":879600,
			"uri":"data:application/octet-stream;base64,"
		}
	]
}
